# xmcd
#
# Track frame offsets: 
#        150
#        21975
#        42792
#        64580
#        83705
#        106470
#        124885
#        146887
#        167542
#
# Disc length: 2568 seconds
#
# Revision: 5
# Processed by: cddbd v1.5.2PL0 Copyright (c) Steve Scherf et al.
# Submitted via: ExactAudioCopy v1.1
#
DISCID=760a0609
DTITLE=1986オメガトライブ - Crystal Night
DYEAR=1987
DGENRE=Japanese Pop
TTITLE0=Counterlight
TTITLE1=Lady Free
TTITLE2=Phoenix
TTITLE3=Indian Summer
TTITLE4=I'll Never Forget You
TTITLE5=Crystal Night
TTITLE6=Ipanema Rain
TTITLE7=Super Chance
TTITLE8=For Each Other
EXTD=
EXTT0=
EXTT1=
EXTT2=
EXTT3=
EXTT4=
EXTT5=
EXTT6=
EXTT7=
EXTT8=
PLAYORDER=
